<mxfile host="app.diagrams.net" modified="2022-11-03T17:08:32.692Z" agent="5.0 (Windows)" etag="EK5rd2mZ6cti0gVBBPYE" version="20.5.1" type="github">
  <diagram id="RCf9d5CUsMZ9T4uLRsl_" name="Page-1">
    <mxGraphModel dx="1964" dy="716" grid="0" gridSize="10" guides="0" tooltips="1" connect="0" arrows="0" fold="1" page="1" pageScale="1" pageWidth="827" pageHeight="583" math="0" shadow="0">
      <root>
        <mxCell id="0" />
        <mxCell id="1" parent="0" />
        <mxCell id="GKFBhkDiTDTHRFN160G9-5" value="DesignExtractorManager&lt;br&gt;" style="swimlane;fontStyle=1;align=center;verticalAlign=top;childLayout=stackLayout;horizontal=1;startSize=26;horizontalStack=0;resizeParent=1;resizeParentMax=0;resizeLast=0;collapsible=1;marginBottom=0;html=1;" parent="1" vertex="1">
          <mxGeometry x="1106" y="562" width="220" height="168" as="geometry" />
        </mxCell>
        <mxCell id="GKFBhkDiTDTHRFN160G9-6" value="- programNode : shared_ptr&amp;lt;ProgramNode&amp;gt;&lt;br&gt;-&amp;nbsp; dataModifier : shared_ptr&amp;lt;DataModifier&amp;gt;" style="text;strokeColor=none;fillColor=none;align=left;verticalAlign=top;spacingLeft=4;spacingRight=4;overflow=hidden;rotatable=0;points=[[0,0.5],[1,0.5]];portConstraint=eastwest;html=1;" parent="GKFBhkDiTDTHRFN160G9-5" vertex="1">
          <mxGeometry y="26" width="220" height="44" as="geometry" />
        </mxCell>
        <mxCell id="GKFBhkDiTDTHRFN160G9-7" value="" style="line;strokeWidth=1;fillColor=none;align=left;verticalAlign=middle;spacingTop=-1;spacingLeft=3;spacingRight=3;rotatable=0;labelPosition=right;points=[];portConstraint=eastwest;strokeColor=inherit;html=1;" parent="GKFBhkDiTDTHRFN160G9-5" vertex="1">
          <mxGeometry y="70" width="220" height="8" as="geometry" />
        </mxCell>
        <mxCell id="GKFBhkDiTDTHRFN160G9-8" value="+ run() : void&lt;br&gt;- saveToPKB() : void&lt;br&gt;- saveEntitiesToPKB() : void&lt;br&gt;- savePatternsToPKB() : void&lt;br&gt;- saveRelationsToPKB() : void&lt;br&gt;" style="text;strokeColor=none;fillColor=none;align=left;verticalAlign=top;spacingLeft=4;spacingRight=4;overflow=hidden;rotatable=0;points=[[0,0.5],[1,0.5]];portConstraint=eastwest;html=1;" parent="GKFBhkDiTDTHRFN160G9-5" vertex="1">
          <mxGeometry y="78" width="220" height="90" as="geometry" />
        </mxCell>
        <mxCell id="GKFBhkDiTDTHRFN160G9-9" value="AbstractDesignExtractor" style="swimlane;fontStyle=1;align=center;verticalAlign=top;childLayout=stackLayout;horizontal=1;startSize=26;horizontalStack=0;resizeParent=1;resizeParentMax=0;resizeLast=0;collapsible=1;marginBottom=0;html=1;" parent="1" vertex="1">
          <mxGeometry x="1098" y="835" width="244" height="140" as="geometry" />
        </mxCell>
        <mxCell id="GKFBhkDiTDTHRFN160G9-10" value="#&amp;nbsp; programNode : shared_ptr&amp;lt;ProgramNode&amp;gt;&lt;br&gt;#&amp;nbsp; dataModifier : shared_ptr&amp;lt;DataModifier&amp;gt;&lt;br&gt;#&amp;nbsp; stmtNumbers : shared_ptr&amp;lt;StmtNumbers&amp;gt;&lt;br&gt;&lt;br&gt;&amp;nbsp;" style="text;strokeColor=none;fillColor=none;align=left;verticalAlign=top;spacingLeft=4;spacingRight=4;overflow=hidden;rotatable=0;points=[[0,0.5],[1,0.5]];portConstraint=eastwest;html=1;" parent="GKFBhkDiTDTHRFN160G9-9" vertex="1">
          <mxGeometry y="26" width="244" height="54" as="geometry" />
        </mxCell>
        <mxCell id="GKFBhkDiTDTHRFN160G9-11" value="" style="line;strokeWidth=1;fillColor=none;align=left;verticalAlign=middle;spacingTop=-1;spacingLeft=3;spacingRight=3;rotatable=0;labelPosition=right;points=[];portConstraint=eastwest;strokeColor=inherit;html=1;" parent="GKFBhkDiTDTHRFN160G9-9" vertex="1">
          <mxGeometry y="80" width="244" height="8" as="geometry" />
        </mxCell>
        <mxCell id="GKFBhkDiTDTHRFN160G9-12" value="+ extract() : shared_ptr&amp;lt;ExtractedResult&amp;gt;&lt;br&gt;+ save() : void&lt;br&gt;" style="text;strokeColor=none;fillColor=none;align=left;verticalAlign=top;spacingLeft=4;spacingRight=4;overflow=hidden;rotatable=0;points=[[0,0.5],[1,0.5]];portConstraint=eastwest;html=1;" parent="GKFBhkDiTDTHRFN160G9-9" vertex="1">
          <mxGeometry y="88" width="244" height="52" as="geometry" />
        </mxCell>
        <mxCell id="SkPulRb8pB89vCI3LF6e-110" style="edgeStyle=orthogonalEdgeStyle;rounded=0;orthogonalLoop=1;jettySize=auto;html=1;exitX=0.5;exitY=0;exitDx=0;exitDy=0;entryX=0.297;entryY=0.989;entryDx=0;entryDy=0;entryPerimeter=0;strokeWidth=1;endArrow=block;endFill=0;endSize=12;dashed=1;" edge="1" parent="1" source="GKFBhkDiTDTHRFN160G9-13" target="GKFBhkDiTDTHRFN160G9-18">
          <mxGeometry relative="1" as="geometry" />
        </mxCell>
        <mxCell id="GKFBhkDiTDTHRFN160G9-13" value="CallsRelationExtractor" style="swimlane;fontStyle=1;align=center;verticalAlign=top;childLayout=stackLayout;horizontal=1;startSize=26;horizontalStack=0;resizeParent=1;resizeParentMax=0;resizeLast=0;collapsible=1;marginBottom=0;html=1;" parent="1" vertex="1">
          <mxGeometry x="2142" y="1103" width="190" height="100" as="geometry" />
        </mxCell>
        <mxCell id="GKFBhkDiTDTHRFN160G9-14" value="&lt;br&gt;&amp;nbsp;" style="text;strokeColor=none;fillColor=none;align=left;verticalAlign=top;spacingLeft=4;spacingRight=4;overflow=hidden;rotatable=0;points=[[0,0.5],[1,0.5]];portConstraint=eastwest;html=1;" parent="GKFBhkDiTDTHRFN160G9-13" vertex="1">
          <mxGeometry y="26" width="190" height="14" as="geometry" />
        </mxCell>
        <mxCell id="GKFBhkDiTDTHRFN160G9-15" value="" style="line;strokeWidth=1;fillColor=none;align=left;verticalAlign=middle;spacingTop=-1;spacingLeft=3;spacingRight=3;rotatable=0;labelPosition=right;points=[];portConstraint=eastwest;strokeColor=inherit;html=1;" parent="GKFBhkDiTDTHRFN160G9-13" vertex="1">
          <mxGeometry y="40" width="190" height="8" as="geometry" />
        </mxCell>
        <mxCell id="GKFBhkDiTDTHRFN160G9-16" value="+ extract() : shared_ptr&amp;lt;ExtractedResult&amp;gt;&lt;br&gt;+ save() : void" style="text;strokeColor=none;fillColor=none;align=left;verticalAlign=top;spacingLeft=4;spacingRight=4;overflow=hidden;rotatable=0;points=[[0,0.5],[1,0.5]];portConstraint=eastwest;html=1;" parent="GKFBhkDiTDTHRFN160G9-13" vertex="1">
          <mxGeometry y="48" width="190" height="52" as="geometry" />
        </mxCell>
        <mxCell id="GKFBhkDiTDTHRFN160G9-18" value="&lt;p style=&quot;margin:0px;margin-top:4px;text-align:center;&quot;&gt;&lt;i&gt;&amp;lt;&amp;lt;Interface&amp;gt;&amp;gt;&lt;/i&gt;&lt;br&gt;&lt;b&gt;CallNodeExtractionInterface&lt;/b&gt;&lt;br&gt;&lt;/p&gt;&lt;hr size=&quot;1&quot;&gt;&lt;p style=&quot;margin:0px;margin-left:4px;&quot;&gt;&lt;br&gt;&lt;/p&gt;&lt;hr size=&quot;1&quot;&gt;&lt;p style=&quot;margin:0px;margin-left:4px;&quot;&gt;+ extractCallNodesFromProcedures &lt;br&gt;&lt;/p&gt;&lt;p style=&quot;margin:0px;margin-left:4px;&quot;&gt;&amp;nbsp; : unordered_map&amp;lt;string, vector&amp;lt;shared_ptr&amp;lt;CallNode&amp;gt;&amp;gt;&amp;gt;&lt;br&gt;&lt;/p&gt;&lt;div&gt;&amp;nbsp;+ extractCallStmtRelationshipsToOutput() : void&lt;br&gt;&lt;/div&gt;&lt;div&gt;&amp;nbsp;+ extractIfAndWhileNodesFromProcedures() : void &lt;/div&gt;&lt;div&gt;&amp;nbsp;+ extractCallStmtRelationshipsWithIfAndWhileToOutput() : void&lt;/div&gt;&lt;div&gt;&amp;nbsp;+ getModifiedVariablesFromProcedure() : void&lt;/div&gt;&lt;div&gt;&amp;nbsp;+ extractVariablesFromCallNodesInProceduresToList() : void&lt;/div&gt;" style="verticalAlign=top;align=left;overflow=fill;fontSize=12;fontFamily=Helvetica;html=1;" parent="1" vertex="1">
          <mxGeometry x="2201" y="757" width="290" height="190" as="geometry" />
        </mxCell>
        <mxCell id="SkPulRb8pB89vCI3LF6e-111" style="edgeStyle=orthogonalEdgeStyle;rounded=0;orthogonalLoop=1;jettySize=auto;html=1;exitX=0.5;exitY=0;exitDx=0;exitDy=0;entryX=0.584;entryY=0.989;entryDx=0;entryDy=0;entryPerimeter=0;strokeWidth=1;endArrow=block;endFill=0;endSize=12;" edge="1" parent="1" source="GKFBhkDiTDTHRFN160G9-21" target="GKFBhkDiTDTHRFN160G9-18">
          <mxGeometry relative="1" as="geometry" />
        </mxCell>
        <mxCell id="GKFBhkDiTDTHRFN160G9-21" value="CallsTRelationExtractor" style="swimlane;fontStyle=1;align=center;verticalAlign=top;childLayout=stackLayout;horizontal=1;startSize=26;horizontalStack=0;resizeParent=1;resizeParentMax=0;resizeLast=0;collapsible=1;marginBottom=0;html=1;" parent="1" vertex="1">
          <mxGeometry x="2355" y="1107" width="190" height="100" as="geometry" />
        </mxCell>
        <mxCell id="GKFBhkDiTDTHRFN160G9-23" value="" style="line;strokeWidth=1;fillColor=none;align=left;verticalAlign=middle;spacingTop=-1;spacingLeft=3;spacingRight=3;rotatable=0;labelPosition=right;points=[];portConstraint=eastwest;strokeColor=inherit;html=1;" parent="GKFBhkDiTDTHRFN160G9-21" vertex="1">
          <mxGeometry y="26" width="190" height="8" as="geometry" />
        </mxCell>
        <mxCell id="GKFBhkDiTDTHRFN160G9-22" value="&lt;br&gt;&amp;nbsp;" style="text;strokeColor=none;fillColor=none;align=left;verticalAlign=top;spacingLeft=4;spacingRight=4;overflow=hidden;rotatable=0;points=[[0,0.5],[1,0.5]];portConstraint=eastwest;html=1;" parent="GKFBhkDiTDTHRFN160G9-21" vertex="1">
          <mxGeometry y="34" width="190" height="14" as="geometry" />
        </mxCell>
        <mxCell id="GKFBhkDiTDTHRFN160G9-24" value="+ extract() : shared_ptr&amp;lt;ExtractedResult&amp;gt;&lt;br&gt;+ save() : void" style="text;strokeColor=none;fillColor=none;align=left;verticalAlign=top;spacingLeft=4;spacingRight=4;overflow=hidden;rotatable=0;points=[[0,0.5],[1,0.5]];portConstraint=eastwest;html=1;" parent="GKFBhkDiTDTHRFN160G9-21" vertex="1">
          <mxGeometry y="48" width="190" height="52" as="geometry" />
        </mxCell>
        <mxCell id="GKFBhkDiTDTHRFN160G9-26" value="FollowsRelationExtractor" style="swimlane;fontStyle=1;align=center;verticalAlign=top;childLayout=stackLayout;horizontal=1;startSize=26;horizontalStack=0;resizeParent=1;resizeParentMax=0;resizeLast=0;collapsible=1;marginBottom=0;html=1;" parent="1" vertex="1">
          <mxGeometry x="1220" y="1045" width="227" height="150" as="geometry">
            <mxRectangle x="960" y="300" width="160" height="30" as="alternateBounds" />
          </mxGeometry>
        </mxCell>
        <mxCell id="GKFBhkDiTDTHRFN160G9-27" value="- vector&amp;lt;vector&amp;lt;shared_ptr&amp;lt;StmtNode&amp;gt;&amp;gt;&amp;gt; &lt;br&gt;&amp;nbsp; listOfStmtList &lt;br&gt;- shared_ptr&amp;lt;list&amp;lt;vector&amp;lt;string&amp;gt;&amp;gt;&amp;gt; output&lt;br&gt;&lt;br&gt;&lt;br&gt;" style="text;strokeColor=none;fillColor=none;align=left;verticalAlign=middle;spacingLeft=4;spacingRight=4;overflow=hidden;rotatable=0;points=[[0,0.5],[1,0.5]];portConstraint=eastwest;html=1;" parent="GKFBhkDiTDTHRFN160G9-26" vertex="1">
          <mxGeometry y="26" width="227" height="54" as="geometry" />
        </mxCell>
        <mxCell id="GKFBhkDiTDTHRFN160G9-28" value="" style="line;strokeWidth=1;fillColor=none;align=left;verticalAlign=middle;spacingTop=-1;spacingLeft=3;spacingRight=3;rotatable=0;labelPosition=right;points=[];portConstraint=eastwest;strokeColor=inherit;html=1;" parent="GKFBhkDiTDTHRFN160G9-26" vertex="1">
          <mxGeometry y="80" width="227" height="8" as="geometry" />
        </mxCell>
        <mxCell id="GKFBhkDiTDTHRFN160G9-29" value="+ extract() : shared_ptr&amp;lt;ExtractedResult&amp;gt;&lt;br&gt;+ save() : void&lt;br&gt;- extractHelper() : void&lt;br&gt;- initListOfStmtList : void&lt;br&gt;&lt;br&gt;" style="text;strokeColor=none;fillColor=none;align=left;verticalAlign=middle;spacingLeft=4;spacingRight=4;overflow=hidden;rotatable=0;points=[[0,0.5],[1,0.5]];portConstraint=eastwest;html=1;" parent="GKFBhkDiTDTHRFN160G9-26" vertex="1">
          <mxGeometry y="88" width="227" height="62" as="geometry" />
        </mxCell>
        <mxCell id="SkPulRb8pB89vCI3LF6e-104" style="edgeStyle=orthogonalEdgeStyle;rounded=0;orthogonalLoop=1;jettySize=auto;html=1;exitX=0.25;exitY=0;exitDx=0;exitDy=0;entryX=0.998;entryY=0.658;entryDx=0;entryDy=0;entryPerimeter=0;strokeWidth=1;endArrow=block;endFill=0;endSize=12;" edge="1" parent="1" source="GKFBhkDiTDTHRFN160G9-38" target="GKFBhkDiTDTHRFN160G9-12">
          <mxGeometry relative="1" as="geometry" />
        </mxCell>
        <mxCell id="GKFBhkDiTDTHRFN160G9-38" value="FollowsTRelationExtractor" style="swimlane;fontStyle=1;align=center;verticalAlign=top;childLayout=stackLayout;horizontal=1;startSize=26;horizontalStack=0;resizeParent=1;resizeParentMax=0;resizeLast=0;collapsible=1;marginBottom=0;html=1;" parent="1" vertex="1">
          <mxGeometry x="1461" y="1042" width="315" height="150" as="geometry" />
        </mxCell>
        <mxCell id="GKFBhkDiTDTHRFN160G9-39" value="- vector&amp;lt;vector&amp;lt;shared_ptr&amp;lt;StmtNode&amp;gt;&amp;gt;&amp;gt; &lt;br&gt;&amp;nbsp; listOfStmtList &lt;br&gt;- shared_ptr&amp;lt;list&amp;lt;vector&amp;lt;string&amp;gt;&amp;gt;&amp;gt; output&lt;br&gt;&lt;br&gt;&lt;br&gt;" style="text;strokeColor=none;fillColor=none;align=left;verticalAlign=middle;spacingLeft=4;spacingRight=4;overflow=hidden;rotatable=0;points=[[0,0.5],[1,0.5]];portConstraint=eastwest;html=1;" parent="GKFBhkDiTDTHRFN160G9-38" vertex="1">
          <mxGeometry y="26" width="315" height="54" as="geometry" />
        </mxCell>
        <mxCell id="GKFBhkDiTDTHRFN160G9-40" value="" style="line;strokeWidth=1;fillColor=none;align=left;verticalAlign=middle;spacingTop=-1;spacingLeft=3;spacingRight=3;rotatable=0;labelPosition=right;points=[];portConstraint=eastwest;strokeColor=inherit;html=1;" parent="GKFBhkDiTDTHRFN160G9-38" vertex="1">
          <mxGeometry y="80" width="315" height="8" as="geometry" />
        </mxCell>
        <mxCell id="GKFBhkDiTDTHRFN160G9-41" value="+ extract() : shared_ptr&amp;lt;ExtractedResult&amp;gt;&lt;br&gt;+ save() : void&lt;br&gt;- extractHelper(stmtList : vector&amp;lt;shared_ptr&amp;lt;StmtNode&amp;gt;&amp;gt;) : void&lt;br&gt;- initListOfStmtList : void&lt;br&gt;&lt;br&gt;" style="text;strokeColor=none;fillColor=none;align=left;verticalAlign=middle;spacingLeft=4;spacingRight=4;overflow=hidden;rotatable=0;points=[[0,0.5],[1,0.5]];portConstraint=eastwest;html=1;" parent="GKFBhkDiTDTHRFN160G9-38" vertex="1">
          <mxGeometry y="88" width="315" height="62" as="geometry" />
        </mxCell>
        <mxCell id="SkPulRb8pB89vCI3LF6e-7" value="&lt;p style=&quot;margin:0px;margin-top:4px;text-align:center;&quot;&gt;&lt;b&gt;ModifiesSRelationExtractor&lt;/b&gt;&lt;br&gt;&lt;/p&gt;&lt;hr size=&quot;1&quot;&gt;&amp;nbsp; - ancestors : shared_ptr&amp;lt;vector&amp;lt;string&amp;gt;&amp;gt; &lt;br&gt;&amp;nbsp; - output : shared_ptr&amp;lt;list&amp;lt;vector&amp;lt;string&amp;gt;&amp;gt;&amp;gt; &lt;br&gt;&amp;nbsp; - ifWhileStmtNoToModifiedVarsMap : StrToSetMap &lt;hr size=&quot;1&quot;&gt;&lt;p style=&quot;margin:0px;margin-left:4px;&quot;&gt;&amp;nbsp; + extract() : shared_ptr&amp;lt;ExtractedResult&amp;gt;&lt;br&gt;&amp;nbsp; + save() : void&lt;/p&gt;&lt;p style=&quot;margin:0px;margin-left:4px;&quot;&gt;&amp;nbsp; - extractorHelper(node: shared_ptr&amp;lt;ASTNode&amp;gt;) : void&lt;br&gt;&amp;nbsp; - insertCallsForModifiesS() : void&lt;br&gt;&amp;nbsp; - insertCallsInIfAndWhileForModifiesS() : void&lt;br&gt;&lt;/p&gt;&lt;p style=&quot;margin:0px;margin-left:4px;&quot;&gt;&amp;nbsp; - initIfAndWhileStmtNoToModifiedVarsMap() : void&lt;br&gt;&lt;/p&gt;&lt;p style=&quot;margin:0px;margin-left:4px;&quot;&gt;&lt;br&gt;&lt;/p&gt;" style="verticalAlign=top;align=left;overflow=fill;fontSize=12;fontFamily=Helvetica;html=1;" vertex="1" parent="1">
          <mxGeometry x="905" y="1301" width="291" height="180" as="geometry" />
        </mxCell>
        <mxCell id="SkPulRb8pB89vCI3LF6e-114" style="edgeStyle=orthogonalEdgeStyle;rounded=0;orthogonalLoop=1;jettySize=auto;html=1;exitX=0.5;exitY=0;exitDx=0;exitDy=0;entryX=0.556;entryY=0.997;entryDx=0;entryDy=0;entryPerimeter=0;strokeWidth=1;endArrow=block;endFill=0;endSize=12;" edge="1" parent="1" source="SkPulRb8pB89vCI3LF6e-8" target="SkPulRb8pB89vCI3LF6e-73">
          <mxGeometry relative="1" as="geometry" />
        </mxCell>
        <mxCell id="SkPulRb8pB89vCI3LF6e-8" value="ModifiesPRelationExtractor" style="swimlane;fontStyle=1;align=center;verticalAlign=top;childLayout=stackLayout;horizontal=1;startSize=26;horizontalStack=0;resizeParent=1;resizeParentMax=0;resizeLast=0;collapsible=1;marginBottom=0;html=1;" vertex="1" parent="1">
          <mxGeometry x="1242" y="1328" width="222" height="100" as="geometry" />
        </mxCell>
        <mxCell id="SkPulRb8pB89vCI3LF6e-9" value="&lt;br&gt;&amp;nbsp;" style="text;strokeColor=none;fillColor=none;align=left;verticalAlign=top;spacingLeft=4;spacingRight=4;overflow=hidden;rotatable=0;points=[[0,0.5],[1,0.5]];portConstraint=eastwest;html=1;" vertex="1" parent="SkPulRb8pB89vCI3LF6e-8">
          <mxGeometry y="26" width="222" height="14" as="geometry" />
        </mxCell>
        <mxCell id="SkPulRb8pB89vCI3LF6e-10" value="" style="line;strokeWidth=1;fillColor=none;align=left;verticalAlign=middle;spacingTop=-1;spacingLeft=3;spacingRight=3;rotatable=0;labelPosition=right;points=[];portConstraint=eastwest;strokeColor=inherit;html=1;" vertex="1" parent="SkPulRb8pB89vCI3LF6e-8">
          <mxGeometry y="40" width="222" height="8" as="geometry" />
        </mxCell>
        <mxCell id="SkPulRb8pB89vCI3LF6e-11" value="+ extract() : shared_ptr&amp;lt;ExtractedResult&amp;gt;&lt;br&gt;+ save() : void" style="text;strokeColor=none;fillColor=none;align=left;verticalAlign=top;spacingLeft=4;spacingRight=4;overflow=hidden;rotatable=0;points=[[0,0.5],[1,0.5]];portConstraint=eastwest;html=1;" vertex="1" parent="SkPulRb8pB89vCI3LF6e-8">
          <mxGeometry y="48" width="222" height="52" as="geometry" />
        </mxCell>
        <mxCell id="SkPulRb8pB89vCI3LF6e-120" style="edgeStyle=orthogonalEdgeStyle;rounded=0;orthogonalLoop=1;jettySize=auto;html=1;exitX=0.75;exitY=0;exitDx=0;exitDy=0;entryX=0.25;entryY=1;entryDx=0;entryDy=0;strokeWidth=1;endArrow=block;endFill=0;endSize=12;" edge="1" parent="1" source="SkPulRb8pB89vCI3LF6e-12" target="SkPulRb8pB89vCI3LF6e-39">
          <mxGeometry relative="1" as="geometry" />
        </mxCell>
        <mxCell id="SkPulRb8pB89vCI3LF6e-12" value="ParentRelationExtractor" style="swimlane;fontStyle=1;align=center;verticalAlign=top;childLayout=stackLayout;horizontal=1;startSize=26;horizontalStack=0;resizeParent=1;resizeParentMax=0;resizeLast=0;collapsible=1;marginBottom=0;html=1;" vertex="1" parent="1">
          <mxGeometry x="388" y="1301" width="218" height="100" as="geometry" />
        </mxCell>
        <mxCell id="SkPulRb8pB89vCI3LF6e-13" value="&lt;br&gt;&amp;nbsp;" style="text;strokeColor=none;fillColor=none;align=left;verticalAlign=top;spacingLeft=4;spacingRight=4;overflow=hidden;rotatable=0;points=[[0,0.5],[1,0.5]];portConstraint=eastwest;html=1;" vertex="1" parent="SkPulRb8pB89vCI3LF6e-12">
          <mxGeometry y="26" width="218" height="14" as="geometry" />
        </mxCell>
        <mxCell id="SkPulRb8pB89vCI3LF6e-14" value="" style="line;strokeWidth=1;fillColor=none;align=left;verticalAlign=middle;spacingTop=-1;spacingLeft=3;spacingRight=3;rotatable=0;labelPosition=right;points=[];portConstraint=eastwest;strokeColor=inherit;html=1;" vertex="1" parent="SkPulRb8pB89vCI3LF6e-12">
          <mxGeometry y="40" width="218" height="8" as="geometry" />
        </mxCell>
        <mxCell id="SkPulRb8pB89vCI3LF6e-15" value="+ extract() : shared_ptr&amp;lt;ExtractedResult&amp;gt;&lt;br&gt;+ save() : void" style="text;strokeColor=none;fillColor=none;align=left;verticalAlign=top;spacingLeft=4;spacingRight=4;overflow=hidden;rotatable=0;points=[[0,0.5],[1,0.5]];portConstraint=eastwest;html=1;" vertex="1" parent="SkPulRb8pB89vCI3LF6e-12">
          <mxGeometry y="48" width="218" height="52" as="geometry" />
        </mxCell>
        <mxCell id="SkPulRb8pB89vCI3LF6e-119" style="edgeStyle=orthogonalEdgeStyle;rounded=0;orthogonalLoop=1;jettySize=auto;html=1;exitX=0.5;exitY=0;exitDx=0;exitDy=0;entryX=0.923;entryY=1.021;entryDx=0;entryDy=0;entryPerimeter=0;strokeWidth=1;endArrow=block;endFill=0;endSize=12;" edge="1" parent="1" source="SkPulRb8pB89vCI3LF6e-16" target="SkPulRb8pB89vCI3LF6e-39">
          <mxGeometry relative="1" as="geometry" />
        </mxCell>
        <mxCell id="SkPulRb8pB89vCI3LF6e-16" value="ParentTRelationExtractor" style="swimlane;fontStyle=1;align=center;verticalAlign=top;childLayout=stackLayout;horizontal=1;startSize=26;horizontalStack=0;resizeParent=1;resizeParentMax=0;resizeLast=0;collapsible=1;marginBottom=0;html=1;" vertex="1" parent="1">
          <mxGeometry x="681" y="1302" width="212" height="100" as="geometry" />
        </mxCell>
        <mxCell id="SkPulRb8pB89vCI3LF6e-17" value="&lt;br&gt;&amp;nbsp;" style="text;strokeColor=none;fillColor=none;align=left;verticalAlign=top;spacingLeft=4;spacingRight=4;overflow=hidden;rotatable=0;points=[[0,0.5],[1,0.5]];portConstraint=eastwest;html=1;" vertex="1" parent="SkPulRb8pB89vCI3LF6e-16">
          <mxGeometry y="26" width="212" height="14" as="geometry" />
        </mxCell>
        <mxCell id="SkPulRb8pB89vCI3LF6e-18" value="" style="line;strokeWidth=1;fillColor=none;align=left;verticalAlign=middle;spacingTop=-1;spacingLeft=3;spacingRight=3;rotatable=0;labelPosition=right;points=[];portConstraint=eastwest;strokeColor=inherit;html=1;" vertex="1" parent="SkPulRb8pB89vCI3LF6e-16">
          <mxGeometry y="40" width="212" height="8" as="geometry" />
        </mxCell>
        <mxCell id="SkPulRb8pB89vCI3LF6e-19" value="+ extract() : shared_ptr&amp;lt;ExtractedResult&amp;gt;&lt;br&gt;+ save() : void&lt;br&gt;- extractParentTDFS() : void&lt;br&gt;" style="text;strokeColor=none;fillColor=none;align=left;verticalAlign=top;spacingLeft=4;spacingRight=4;overflow=hidden;rotatable=0;points=[[0,0.5],[1,0.5]];portConstraint=eastwest;html=1;" vertex="1" parent="SkPulRb8pB89vCI3LF6e-16">
          <mxGeometry y="48" width="212" height="52" as="geometry" />
        </mxCell>
        <mxCell id="SkPulRb8pB89vCI3LF6e-96" style="edgeStyle=orthogonalEdgeStyle;rounded=0;orthogonalLoop=1;jettySize=auto;html=1;exitX=0.5;exitY=0;exitDx=0;exitDy=0;entryX=1.004;entryY=0.123;entryDx=0;entryDy=0;entryPerimeter=0;endArrow=block;endFill=0;strokeWidth=1;endSize=12;" edge="1" parent="1" source="SkPulRb8pB89vCI3LF6e-20" target="GKFBhkDiTDTHRFN160G9-12">
          <mxGeometry relative="1" as="geometry">
            <Array as="points">
              <mxPoint x="1948" y="926" />
            </Array>
          </mxGeometry>
        </mxCell>
        <mxCell id="SkPulRb8pB89vCI3LF6e-97" style="edgeStyle=orthogonalEdgeStyle;rounded=0;orthogonalLoop=1;jettySize=auto;html=1;exitX=0.75;exitY=0;exitDx=0;exitDy=0;entryX=0.797;entryY=0.986;entryDx=0;entryDy=0;entryPerimeter=0;strokeWidth=1;endArrow=block;endFill=0;endSize=12;dashed=1;" edge="1" parent="1" source="SkPulRb8pB89vCI3LF6e-20" target="SkPulRb8pB89vCI3LF6e-32">
          <mxGeometry relative="1" as="geometry" />
        </mxCell>
        <mxCell id="SkPulRb8pB89vCI3LF6e-98" style="edgeStyle=orthogonalEdgeStyle;rounded=0;orthogonalLoop=1;jettySize=auto;html=1;exitX=0.75;exitY=0;exitDx=0;exitDy=0;entryX=0.053;entryY=0.989;entryDx=0;entryDy=0;entryPerimeter=0;dashed=1;strokeWidth=1;endArrow=block;endFill=0;endSize=12;" edge="1" parent="1" source="SkPulRb8pB89vCI3LF6e-20" target="GKFBhkDiTDTHRFN160G9-18">
          <mxGeometry relative="1" as="geometry" />
        </mxCell>
        <mxCell id="SkPulRb8pB89vCI3LF6e-20" value="&lt;p style=&quot;margin:0px;margin-top:4px;text-align:center;&quot;&gt;&lt;b&gt;UsesRelationExtractor&lt;/b&gt;&lt;br&gt;&lt;/p&gt;&lt;hr size=&quot;1&quot;&gt;&lt;p style=&quot;margin:0px;margin-left:4px;&quot;&gt;+ output : shared_ptr&amp;lt;list&amp;lt;vector&amp;lt;string&amp;gt;&amp;gt;&amp;gt;&lt;/p&gt;&lt;hr size=&quot;1&quot;&gt;&lt;p style=&quot;margin:0px;margin-left:4px;&quot;&gt;- extractUsesSHelper(node : shared_ptr&amp;lt;ASTNode&amp;gt;,&lt;/p&gt;&lt;p style=&quot;margin:0px;margin-left:4px;&quot;&gt;&amp;nbsp;&amp;nbsp; result: shared_ptr&amp;lt;list&amp;lt;vector&amp;lt;string&amp;gt;&amp;gt;&amp;gt;  ) : unordered_set&amp;lt;string&amp;gt;&lt;/p&gt;&lt;p style=&quot;margin:0px;margin-left:4px;&quot;&gt;- initProceduresToUsedVarsMap() : void&lt;br&gt;- proceduresToUsedVarsMap() : StrToSetMap &lt;/p&gt;" style="verticalAlign=top;align=left;overflow=fill;fontSize=12;fontFamily=Helvetica;html=1;" vertex="1" parent="1">
          <mxGeometry x="1796" y="1092" width="334" height="130" as="geometry" />
        </mxCell>
        <mxCell id="SkPulRb8pB89vCI3LF6e-121" style="edgeStyle=orthogonalEdgeStyle;rounded=0;orthogonalLoop=1;jettySize=auto;html=1;exitX=0.5;exitY=0;exitDx=0;exitDy=0;entryX=0.25;entryY=1;entryDx=0;entryDy=0;strokeWidth=1;endArrow=block;endFill=0;endSize=12;" edge="1" parent="1" source="SkPulRb8pB89vCI3LF6e-23" target="SkPulRb8pB89vCI3LF6e-20">
          <mxGeometry relative="1" as="geometry" />
        </mxCell>
        <mxCell id="SkPulRb8pB89vCI3LF6e-23" value="&lt;p style=&quot;margin:0px;margin-top:4px;text-align:center;&quot;&gt;&lt;b&gt;UsesSRelationExtractor&lt;/b&gt;&lt;br&gt;&lt;/p&gt;&lt;hr size=&quot;1&quot;&gt;&lt;br&gt;&lt;hr size=&quot;1&quot;&gt;&lt;div&gt;&amp;nbsp;+ extract() : shared_ptr&amp;lt;ExtractedResult&amp;gt; &lt;br&gt;&amp;nbsp;+ save() : void &lt;br&gt;&lt;/div&gt;&lt;div&gt;&amp;nbsp;-&amp;nbsp; mapProceduresToUsedVariables() :&amp;nbsp; unordered_map&amp;lt;string, unordered_set&amp;lt;string&amp;gt;&amp;gt; &lt;/div&gt;&lt;div&gt;&amp;nbsp;- mapIfAndWhileStmtNoToUsedVariables () : unordered_map&amp;lt;string, unordered_set&amp;lt;string&amp;gt;&amp;gt;&lt;/div&gt;&lt;div&gt;&amp;nbsp;- insertCallsInIfAndWhileForUseS() : void&lt;br&gt;&lt;/div&gt;&lt;div&gt;&amp;nbsp;- insertCallsForUseS() : void&lt;br&gt;&lt;/div&gt;&lt;div&gt;&amp;nbsp;- extractCallStmtRelationshipsWithIfAndWhileToOutput () : void&lt;br&gt;&lt;/div&gt;&lt;div&gt;&amp;nbsp;- extractCallStmtRelationshipsToOutput() : void&lt;br&gt;&lt;/div&gt;&lt;div&gt;&lt;br&gt;&lt;/div&gt;&lt;div&gt;&lt;br&gt;&lt;/div&gt;&amp;nbsp;" style="verticalAlign=top;align=left;overflow=fill;fontSize=12;fontFamily=Helvetica;html=1;" vertex="1" parent="1">
          <mxGeometry x="1532" y="1340" width="440" height="190" as="geometry" />
        </mxCell>
        <mxCell id="SkPulRb8pB89vCI3LF6e-112" style="edgeStyle=orthogonalEdgeStyle;rounded=0;orthogonalLoop=1;jettySize=auto;html=1;entryX=0.621;entryY=0.997;entryDx=0;entryDy=0;entryPerimeter=0;strokeWidth=1;endArrow=block;endFill=0;endSize=12;exitX=0.5;exitY=0;exitDx=0;exitDy=0;" edge="1" parent="1" source="SkPulRb8pB89vCI3LF6e-122" target="SkPulRb8pB89vCI3LF6e-20">
          <mxGeometry relative="1" as="geometry">
            <mxPoint x="2171" y="1403" as="sourcePoint" />
          </mxGeometry>
        </mxCell>
        <mxCell id="SkPulRb8pB89vCI3LF6e-118" style="edgeStyle=orthogonalEdgeStyle;rounded=0;orthogonalLoop=1;jettySize=auto;html=1;exitX=0.75;exitY=0;exitDx=0;exitDy=0;entryX=0.419;entryY=1;entryDx=0;entryDy=0;entryPerimeter=0;strokeWidth=1;endArrow=block;endFill=0;endSize=12;dashed=1;" edge="1" parent="1" source="SkPulRb8pB89vCI3LF6e-28" target="SkPulRb8pB89vCI3LF6e-33">
          <mxGeometry relative="1" as="geometry" />
        </mxCell>
        <mxCell id="SkPulRb8pB89vCI3LF6e-28" value="NextRelationExtractor" style="swimlane;fontStyle=1;align=center;verticalAlign=top;childLayout=stackLayout;horizontal=1;startSize=26;horizontalStack=0;resizeParent=1;resizeParentMax=0;resizeLast=0;collapsible=1;marginBottom=0;html=1;" vertex="1" parent="1">
          <mxGeometry x="361" y="892" width="210" height="110" as="geometry" />
        </mxCell>
        <mxCell id="SkPulRb8pB89vCI3LF6e-54" value="&amp;nbsp;&amp;nbsp;&amp;nbsp;&amp;nbsp; &lt;br&gt;&lt;br&gt;&lt;br&gt;" style="text;strokeColor=none;fillColor=none;align=left;verticalAlign=middle;spacingLeft=4;spacingRight=4;overflow=hidden;rotatable=0;points=[[0,0.5],[1,0.5]];portConstraint=eastwest;html=1;" vertex="1" parent="SkPulRb8pB89vCI3LF6e-28">
          <mxGeometry y="26" width="210" height="24" as="geometry" />
        </mxCell>
        <mxCell id="SkPulRb8pB89vCI3LF6e-30" value="" style="line;strokeWidth=1;fillColor=none;align=left;verticalAlign=middle;spacingTop=-1;spacingLeft=3;spacingRight=3;rotatable=0;labelPosition=right;points=[];portConstraint=eastwest;strokeColor=inherit;html=1;" vertex="1" parent="SkPulRb8pB89vCI3LF6e-28">
          <mxGeometry y="50" width="210" height="8" as="geometry" />
        </mxCell>
        <mxCell id="SkPulRb8pB89vCI3LF6e-31" value="+ extract() : shared_ptr&amp;lt;ExtractedResult&amp;gt;&lt;br&gt;+ save() : void" style="text;strokeColor=none;fillColor=none;align=left;verticalAlign=top;spacingLeft=4;spacingRight=4;overflow=hidden;rotatable=0;points=[[0,0.5],[1,0.5]];portConstraint=eastwest;html=1;" vertex="1" parent="SkPulRb8pB89vCI3LF6e-28">
          <mxGeometry y="58" width="210" height="52" as="geometry" />
        </mxCell>
        <mxCell id="SkPulRb8pB89vCI3LF6e-32" value="&lt;p style=&quot;margin:0px;margin-top:4px;text-align:center;&quot;&gt;&lt;i&gt;&amp;lt;&amp;lt;Interface&amp;gt;&amp;gt;&lt;/i&gt;&lt;br&gt;&lt;b&gt;VariableExtractionInterface&lt;/b&gt;&lt;br&gt;&lt;/p&gt;&lt;hr size=&quot;1&quot;&gt;&lt;p style=&quot;margin:0px;margin-left:4px;&quot;&gt;&lt;br&gt;&lt;/p&gt;&lt;hr size=&quot;1&quot;&gt;&lt;p style=&quot;margin:0px;margin-left:4px;&quot;&gt;+&amp;nbsp; getVariablesFromExprNode(exprNode : shared_ptr&amp;lt;ExprNode&amp;gt;) &lt;br&gt;&lt;/p&gt;&lt;p style=&quot;margin:0px;margin-left:4px;&quot;&gt;&amp;nbsp;&amp;nbsp; : unordered_set&amp;lt;string&amp;gt;&lt;/p&gt;&lt;p style=&quot;margin:0px;margin-left:4px;&quot;&gt;+ getVariablesFromCondExprNode(condExprNode : shared_ptr&amp;lt;CondExprNode&amp;gt;) &lt;br&gt;&lt;/p&gt;&lt;p style=&quot;margin:0px;margin-left:4px;&quot;&gt;&amp;nbsp;&amp;nbsp; : unordered_set&amp;lt;string&amp;gt; &lt;/p&gt;" style="verticalAlign=top;align=left;overflow=fill;fontSize=12;fontFamily=Helvetica;html=1;" vertex="1" parent="1">
          <mxGeometry x="1721" y="762" width="380" height="140" as="geometry" />
        </mxCell>
        <mxCell id="SkPulRb8pB89vCI3LF6e-33" value="&lt;p style=&quot;margin:0px;margin-top:4px;text-align:center;&quot;&gt;&lt;i&gt;&amp;lt;&amp;lt;Interface&amp;gt;&amp;gt;&lt;/i&gt;&lt;br&gt;&lt;b&gt;CFGExtractionInterface&lt;/b&gt;&lt;br&gt;&lt;/p&gt;&lt;hr size=&quot;1&quot;&gt;&lt;p style=&quot;margin:0px;margin-left:4px;&quot;&gt;&lt;br&gt;&lt;/p&gt;&lt;hr size=&quot;1&quot;&gt;&lt;p style=&quot;margin:0px;margin-left:4px;&quot;&gt;&amp;nbsp;# generateProcCFGMap( programNode : shared_ptr&amp;lt;ProgramNode&amp;gt; , &lt;br&gt;&lt;/p&gt;&lt;p style=&quot;margin:0px;margin-left:4px;&quot;&gt;&amp;nbsp;&amp;nbsp;&amp;nbsp; stmtNumbers : shared_ptr&amp;lt;StmtNumbers&amp;gt;) &lt;br&gt;&lt;/p&gt;&lt;p style=&quot;margin:0px;margin-left:4px;&quot;&gt;&amp;nbsp;&amp;nbsp; : shared_ptr&amp;lt;ProcCFGMap&amp;gt;&lt;/p&gt;" style="verticalAlign=top;align=left;overflow=fill;fontSize=12;fontFamily=Helvetica;html=1;" vertex="1" parent="1">
          <mxGeometry x="363" y="660" width="375" height="132" as="geometry" />
        </mxCell>
        <mxCell id="SkPulRb8pB89vCI3LF6e-115" style="edgeStyle=orthogonalEdgeStyle;rounded=0;orthogonalLoop=1;jettySize=auto;html=1;exitX=0.75;exitY=0;exitDx=0;exitDy=0;entryX=0;entryY=0.5;entryDx=0;entryDy=0;strokeWidth=1;endArrow=block;endFill=0;endSize=12;" edge="1" parent="1" source="SkPulRb8pB89vCI3LF6e-39" target="GKFBhkDiTDTHRFN160G9-12">
          <mxGeometry relative="1" as="geometry" />
        </mxCell>
        <mxCell id="SkPulRb8pB89vCI3LF6e-39" value="&lt;p style=&quot;margin:0px;margin-top:4px;text-align:center;&quot;&gt;&lt;b&gt;ParentCommonExtractor&lt;/b&gt;&lt;/p&gt;&lt;hr size=&quot;1&quot;&gt;&lt;p style=&quot;margin:0px;margin-left:4px;&quot;&gt;&lt;br&gt;&lt;/p&gt;&lt;hr size=&quot;1&quot;&gt;&lt;p style=&quot;margin:0px;margin-left:4px;&quot;&gt;# extractParentHashmap(rootPtr : shared_ptr&amp;lt;ProgramNode&amp;gt;) : &lt;br&gt;&lt;/p&gt;&lt;p style=&quot;margin:0px;margin-left:4px;&quot;&gt;&amp;nbsp; shared_ptr&amp;lt;map&amp;lt;int, vector&amp;lt;int&amp;gt;&amp;gt;&amp;gt; &lt;/p&gt;" style="verticalAlign=top;align=left;overflow=fill;fontSize=12;fontFamily=Helvetica;html=1;" vertex="1" parent="1">
          <mxGeometry x="521" y="1062" width="290" height="100" as="geometry" />
        </mxCell>
        <mxCell id="SkPulRb8pB89vCI3LF6e-73" value="&lt;p style=&quot;margin:0px;margin-top:4px;text-align:center;&quot;&gt;&lt;b&gt;ModifiesRelationExtractor&lt;/b&gt;&lt;br&gt;&lt;/p&gt;&lt;hr size=&quot;1&quot;&gt;&lt;br&gt;&lt;hr size=&quot;1&quot;&gt;&lt;p style=&quot;margin:0px;margin-left:4px;&quot;&gt;# initProceduresToModifiedVarsMap() : void &lt;br&gt;# proceduresToModifiedVarsMap : StrToSetMap&lt;/p&gt;" style="verticalAlign=top;align=left;overflow=fill;fontSize=12;fontFamily=Helvetica;html=1;" vertex="1" parent="1">
          <mxGeometry x="921" y="1042" width="284" height="100" as="geometry" />
        </mxCell>
        <mxCell id="SkPulRb8pB89vCI3LF6e-25" value="&lt;br&gt;&amp;nbsp;" style="text;strokeColor=none;fillColor=none;align=left;verticalAlign=top;spacingLeft=4;spacingRight=4;overflow=hidden;rotatable=0;points=[[0,0.5],[1,0.5]];portConstraint=eastwest;html=1;" vertex="1" parent="1">
          <mxGeometry x="1201" y="1459" width="190" height="14" as="geometry" />
        </mxCell>
        <mxCell id="SkPulRb8pB89vCI3LF6e-74" value="" style="endArrow=block;endFill=0;endSize=12;html=1;rounded=0;exitX=0.27;exitY=0.017;exitDx=0;exitDy=0;exitPerimeter=0;entryX=0.233;entryY=0.991;entryDx=0;entryDy=0;entryPerimeter=0;" edge="1" parent="1" source="SkPulRb8pB89vCI3LF6e-7" target="SkPulRb8pB89vCI3LF6e-73">
          <mxGeometry width="160" relative="1" as="geometry">
            <mxPoint x="984" y="1282" as="sourcePoint" />
            <mxPoint x="984" y="1142" as="targetPoint" />
          </mxGeometry>
        </mxCell>
        <mxCell id="SkPulRb8pB89vCI3LF6e-83" value="&lt;div&gt;&lt;br&gt;&lt;/div&gt;&lt;div&gt;&lt;br&gt;&lt;/div&gt;" style="endArrow=open;endSize=12;dashed=1;html=1;rounded=0;entryX=0.506;entryY=1.014;entryDx=0;entryDy=0;entryPerimeter=0;" edge="1" parent="1" target="GKFBhkDiTDTHRFN160G9-8">
          <mxGeometry x="-0.0763" y="-53" width="160" relative="1" as="geometry">
            <mxPoint x="1217" y="832" as="sourcePoint" />
            <mxPoint x="1281" y="782" as="targetPoint" />
            <mxPoint as="offset" />
          </mxGeometry>
        </mxCell>
        <mxCell id="SkPulRb8pB89vCI3LF6e-87" value="" style="endArrow=block;endFill=0;endSize=12;html=1;rounded=0;entryX=0.21;entryY=0.978;entryDx=0;entryDy=0;entryPerimeter=0;" edge="1" parent="1" target="GKFBhkDiTDTHRFN160G9-12">
          <mxGeometry width="160" relative="1" as="geometry">
            <mxPoint x="1149" y="1043" as="sourcePoint" />
            <mxPoint x="1151" y="972" as="targetPoint" />
          </mxGeometry>
        </mxCell>
        <mxCell id="SkPulRb8pB89vCI3LF6e-94" value="" style="endArrow=block;endFill=0;endSize=12;html=1;rounded=0;entryX=0.771;entryY=0.962;entryDx=0;entryDy=0;entryPerimeter=0;exitX=0.294;exitY=0.012;exitDx=0;exitDy=0;exitPerimeter=0;" edge="1" parent="1" source="GKFBhkDiTDTHRFN160G9-26" target="GKFBhkDiTDTHRFN160G9-12">
          <mxGeometry width="160" relative="1" as="geometry">
            <mxPoint x="1286" y="1040" as="sourcePoint" />
            <mxPoint x="1271.1" y="970.856" as="targetPoint" />
          </mxGeometry>
        </mxCell>
        <mxCell id="SkPulRb8pB89vCI3LF6e-117" style="edgeStyle=orthogonalEdgeStyle;rounded=0;orthogonalLoop=1;jettySize=auto;html=1;exitX=1;exitY=0.5;exitDx=0;exitDy=0;entryX=0.013;entryY=0.932;entryDx=0;entryDy=0;entryPerimeter=0;strokeWidth=1;endArrow=block;endFill=0;endSize=12;" edge="1" parent="1" source="SkPulRb8pB89vCI3LF6e-54" target="GKFBhkDiTDTHRFN160G9-10">
          <mxGeometry relative="1" as="geometry" />
        </mxCell>
        <mxCell id="SkPulRb8pB89vCI3LF6e-122" value="UsesPRelationExtractor" style="swimlane;fontStyle=1;align=center;verticalAlign=top;childLayout=stackLayout;horizontal=1;startSize=26;horizontalStack=0;resizeParent=1;resizeParentMax=0;resizeLast=0;collapsible=1;marginBottom=0;html=1;" vertex="1" parent="1">
          <mxGeometry x="2039" y="1383" width="205" height="100" as="geometry" />
        </mxCell>
        <mxCell id="SkPulRb8pB89vCI3LF6e-123" value="&lt;br&gt;&amp;nbsp;" style="text;strokeColor=none;fillColor=none;align=left;verticalAlign=top;spacingLeft=4;spacingRight=4;overflow=hidden;rotatable=0;points=[[0,0.5],[1,0.5]];portConstraint=eastwest;html=1;" vertex="1" parent="SkPulRb8pB89vCI3LF6e-122">
          <mxGeometry y="26" width="205" height="14" as="geometry" />
        </mxCell>
        <mxCell id="SkPulRb8pB89vCI3LF6e-124" value="" style="line;strokeWidth=1;fillColor=none;align=left;verticalAlign=middle;spacingTop=-1;spacingLeft=3;spacingRight=3;rotatable=0;labelPosition=right;points=[];portConstraint=eastwest;strokeColor=inherit;html=1;" vertex="1" parent="SkPulRb8pB89vCI3LF6e-122">
          <mxGeometry y="40" width="205" height="8" as="geometry" />
        </mxCell>
        <mxCell id="SkPulRb8pB89vCI3LF6e-125" value="+ extract() : shared_ptr&amp;lt;ExtractedResult&amp;gt;&lt;br&gt;+ save() : void" style="text;strokeColor=none;fillColor=none;align=left;verticalAlign=top;spacingLeft=4;spacingRight=4;overflow=hidden;rotatable=0;points=[[0,0.5],[1,0.5]];portConstraint=eastwest;html=1;" vertex="1" parent="SkPulRb8pB89vCI3LF6e-122">
          <mxGeometry y="48" width="205" height="52" as="geometry" />
        </mxCell>
      </root>
    </mxGraphModel>
  </diagram>
</mxfile>
